<?xml version="1.0" encoding="UTF-8" standalone="no"?><!DOCTYPE svg PUBLIC "-//W3C//DTD SVG 1.1//EN" "http://www.w3.org/Graphics/SVG/1.1/DTD/svg11.dtd"><svg width="100%" height="100%" viewBox="0 0 103 160" version="1.1" xmlns="http://www.w3.org/2000/svg" xmlns:xlink="http://www.w3.org/1999/xlink" xml:space="preserve" xmlns:serif="http://www.serif.com/" style="fill-rule:evenodd;clip-rule:evenodd;stroke-linecap:round;stroke-miterlimit:2;"><g id="Color"><rect id="Bismuth" x="0" y="0" width="103" height="160" style="fill:#01321f;"/></g><g id="Base-Metal-Background" serif:id="Base Metal Background"><g id="Numeral-Background" serif:id="Numeral Background"><path d="M31.656,-0c0.07,0.483 0.106,0.977 0.106,1.479l0,31.43c0,5.683 -4.614,10.297 -10.297,10.297l-20.594,0c-0.293,0 -0.584,-0.012 -0.871,-0.036l0,-43.169l31.656,-0Z" style="fill:none;stroke:#fff;stroke-width:3.1px;"/><path d="M31.656,-0c0.07,0.483 0.106,0.977 0.106,1.479l0,31.43c0,5.683 -4.614,10.297 -10.297,10.297l-20.594,0c-0.293,0 -0.584,-0.012 -0.871,-0.036l0,-43.169l31.656,-0Z"/><path d="M71.344,-0c-0.07,0.483 -0.106,0.977 -0.106,1.479l0,31.43c0,5.683 4.614,10.297 10.297,10.297l20.594,0c0.293,0 0.584,-0.012 0.871,-0.036l0,-43.169l-31.656,-0Z" style="fill:none;stroke:#fff;stroke-width:3.1px;"/><path d="M71.344,-0c-0.07,0.483 -0.106,0.977 -0.106,1.479l0,31.43c0,5.683 4.614,10.297 10.297,10.297l20.594,0c0.293,0 0.584,-0.012 0.871,-0.036l0,-43.169l-31.656,-0Z"/><path d="M31.656,160c0.07,-0.483 0.106,-0.977 0.106,-1.479l0,-31.43c0,-5.683 -4.614,-10.297 -10.297,-10.297l-20.594,0c-0.293,0 -0.584,0.012 -0.871,0.036l0,43.169l31.656,0Z" style="fill:none;stroke:#fff;stroke-width:3.1px;"/><path d="M31.656,160c0.07,-0.483 0.106,-0.977 0.106,-1.479l0,-31.43c0,-5.683 -4.614,-10.297 -10.297,-10.297l-20.594,0c-0.293,0 -0.584,0.012 -0.871,0.036l0,43.169l31.656,0Z"/><path d="M71.344,160c-0.07,-0.483 -0.106,-0.977 -0.106,-1.479l0,-31.43c0,-5.683 4.614,-10.297 10.297,-10.297l20.594,0c0.293,0 0.584,0.012 0.871,0.036l0,43.169l-31.656,0Z" style="fill:none;stroke:#fff;stroke-width:3.1px;"/><path d="M71.344,160c-0.07,-0.483 -0.106,-0.977 -0.106,-1.479l0,-31.43c0,-5.683 4.614,-10.297 10.297,-10.297l20.594,0c0.293,0 0.584,0.012 0.871,0.036l0,43.169l-31.656,0Z"/></g><circle id="Large-circle" serif:id="Large circle" cx="51.5" cy="80" r="34.156" style="fill:#fff;"/><g id="Small-Circles" serif:id="Small Circles"><circle cx="15" cy="43" r="14" style="fill:#fff;"/><circle cx="88" cy="43" r="14" style="fill:#fff;"/><circle cx="15" cy="117" r="14" style="fill:#fff;"/><circle cx="88" cy="117" r="14" style="fill:#fff;"/></g></g><g id="Bismuth1" serif:id="Bismuth"><g id="Bismuth2" serif:id="Bismuth"><circle cx="15.031" cy="46.549" r="6.687" style="fill:#00ffef;fill-opacity:0;stroke:#000;stroke-width:1.7px;stroke-linejoin:round;stroke-miterlimit:1.5;"/><path d="M21.718,33.174c0,3.691 -2.997,6.687 -6.687,6.687c-3.691,0 -6.687,-2.997 -6.687,-6.687" style="fill:#00ffef;fill-opacity:0;stroke:#000;stroke-width:1.7px;stroke-linejoin:round;stroke-miterlimit:1.5;"/></g><g id="Bismuth-Large" serif:id="Bismuth Large"><circle cx="51.5" cy="87.598" r="15.197" style="fill:#00ffef;fill-opacity:0;stroke:#000;stroke-width:1.7px;stroke-linejoin:round;stroke-miterlimit:1.5;"/><path d="M66.697,57.205c0,8.387 -6.809,15.197 -15.197,15.197c-8.387,0 -15.197,-6.809 -15.197,-15.197" style="fill:#00ffef;fill-opacity:0;stroke:#000;stroke-width:1.7px;stroke-linejoin:round;stroke-miterlimit:1.5;"/></g><g id="Bismuth3" serif:id="Bismuth"><circle cx="87.969" cy="46.549" r="6.687" style="fill:#00ffef;fill-opacity:0;stroke:#000;stroke-width:1.7px;stroke-linejoin:round;stroke-miterlimit:1.5;"/><path d="M81.282,33.174c0,3.691 2.997,6.687 6.687,6.687c3.691,0 6.687,-2.997 6.687,-6.687" style="fill:#00ffef;fill-opacity:0;stroke:#000;stroke-width:1.7px;stroke-linejoin:round;stroke-miterlimit:1.5;"/></g><g id="Bismuth4" serif:id="Bismuth"><circle cx="15.031" cy="113.451" r="6.687" style="fill:#00ffef;fill-opacity:0;stroke:#000;stroke-width:1.7px;stroke-linejoin:round;stroke-miterlimit:1.5;"/><path d="M21.718,126.826c0,-3.691 -2.997,-6.687 -6.687,-6.687c-3.691,0 -6.687,2.997 -6.687,6.687" style="fill:#00ffef;fill-opacity:0;stroke:#000;stroke-width:1.7px;stroke-linejoin:round;stroke-miterlimit:1.5;"/></g><g id="Bismuth5" serif:id="Bismuth"><circle cx="87.969" cy="113.451" r="6.687" style="fill:#00ffef;fill-opacity:0;stroke:#000;stroke-width:1.7px;stroke-linejoin:round;stroke-miterlimit:1.5;"/><path d="M81.282,126.826c0,-3.691 2.997,-6.687 6.687,-6.687c3.691,0 6.687,2.997 6.687,6.687" style="fill:#00ffef;fill-opacity:0;stroke:#000;stroke-width:1.7px;stroke-linejoin:round;stroke-miterlimit:1.5;"/></g></g></svg>