<?xml version="1.0" encoding="UTF-8" standalone="no"?><!DOCTYPE svg PUBLIC "-//W3C//DTD SVG 1.1//EN" "http://www.w3.org/Graphics/SVG/1.1/DTD/svg11.dtd"><svg width="100%" height="100%" viewBox="0 0 103 160" version="1.1" xmlns="http://www.w3.org/2000/svg" xmlns:xlink="http://www.w3.org/1999/xlink" xml:space="preserve" xmlns:serif="http://www.serif.com/" style="fill-rule:evenodd;clip-rule:evenodd;stroke-linecap:round;stroke-linejoin:round;stroke-miterlimit:2;"><g id="Color"><rect id="Gold" x="-0" y="0" width="103" height="160" style="fill:#eedb3c;"/></g><g id="Gold-Background" serif:id="Gold Background"><path d="M48.318,43.32l3.182,5.379l3.182,-5.379l35.443,58.092l-25.75,58.588l-25.75,0l-25.75,-58.588l35.443,-58.092Z" style="fill:#fff;"/><path d="M48.318,43.32l-9.677,-14.729l12.859,-19.572l12.859,19.572l-9.677,14.729l-3.182,-4.695l-3.182,4.695Z"/><path d="M54.682,43.32l-3.182,4.843l-3.182,-4.843l3.182,-4.695l3.182,4.695Z"/><g id="Numeral-Background" serif:id="Numeral Background"><path d="M0,50.89c0,0 10.594,-20.708 17.667,-31.005c10.354,-15.074 17.632,-19.885 17.632,-19.885l-35.299,0l0,50.89Z" style="fill:none;stroke:#fff;stroke-width:3.1px;"/><path d="M0,50.89c0,0 10.594,-20.708 17.667,-31.005c10.354,-15.074 17.632,-19.885 17.632,-19.885l-35.299,0l0,50.89Z"/><path d="M103,50.89c0,0 -10.594,-20.708 -17.667,-31.005c-10.354,-15.074 -17.632,-19.885 -17.632,-19.885l35.299,-0l0,50.89Z" style="fill:none;stroke:#fff;stroke-width:3.1px;"/><path d="M103,50.89c0,0 -10.594,-20.708 -17.667,-31.005c-10.354,-15.074 -17.632,-19.885 -17.632,-19.885l35.299,-0l0,50.89Z"/><path d="M0,109.11c0,0 10.594,20.708 17.667,31.005c10.354,15.074 17.632,19.885 17.632,19.885l-35.299,0l0,-50.89Z" style="fill:none;stroke:#fff;stroke-width:3.1px;"/><path d="M0,109.11c0,0 10.594,20.708 17.667,31.005c10.354,15.074 17.632,19.885 17.632,19.885l-35.299,0l0,-50.89Z"/><path d="M103,109.11c0,0 -10.594,20.708 -17.667,31.005c-10.354,15.074 -17.632,19.885 -17.632,19.885l35.299,0l0,-50.89Z" style="fill:none;stroke:#fff;stroke-width:3.1px;"/><path d="M103,109.11c0,0 -10.594,20.708 -17.667,31.005c-10.354,15.074 -17.632,19.885 -17.632,19.885l35.299,0l0,-50.89Z"/></g><g id="One-Gold" serif:id="One Gold"><path id="One-Gold1" serif:id="One Gold" d="M16.738,31.769l0,9.022c0,2.049 -1.663,3.712 -3.712,3.712l-7.425,0c-2.049,0 -3.712,-1.663 -3.712,-3.712l0,-9.022c0,-2.049 1.663,-3.712 3.712,-3.712l7.425,0c2.049,0 3.712,1.663 3.712,3.712Z" style="fill:#fff;"/><path id="One-Gold2" serif:id="One Gold" d="M86.262,31.769l0,9.022c0,2.049 1.663,3.712 3.712,3.712l7.425,0c2.049,0 3.712,-1.663 3.712,-3.712l0,-9.022c0,-2.049 -1.663,-3.712 -3.712,-3.712l-7.425,0c-2.049,0 -3.712,1.663 -3.712,3.712Z" style="fill:#fff;"/><path id="One-Gold3" serif:id="One Gold" d="M16.738,128.231l0,-9.022c0,-2.049 -1.663,-3.712 -3.712,-3.712l-7.425,0c-2.049,0 -3.712,1.663 -3.712,3.712l0,9.022c0,2.049 1.663,3.712 3.712,3.712l7.425,0c2.049,0 3.712,-1.663 3.712,-3.712Z" style="fill:#fff;"/><path id="One-Gold4" serif:id="One Gold" d="M86.262,128.231l0,-9.022c0,-2.049 1.663,-3.712 3.712,-3.712l7.425,0c2.049,0 3.712,1.663 3.712,3.712l0,9.022c0,2.049 -1.663,3.712 -3.712,3.712l-7.425,0c-2.049,0 -3.712,-1.663 -3.712,-3.712Z" style="fill:#fff;"/></g></g><g id="Gold1" serif:id="Gold"><g id="One-Gold5" serif:id="One Gold"><g id="Large-One-Gold" serif:id="Large One Gold"><circle cx="51.5" cy="98.938" r="17.886" style="fill:#00ffef;fill-opacity:0;stroke:#000;stroke-width:1.7px;stroke-miterlimit:1.5;"/><path d="M51.5,81.053c3.591,-2.176 4.261,-8.706 -1.768,-12.39" style="fill:none;stroke:#000;stroke-width:1.7px;stroke-miterlimit:1.5;"/><path d="M38.546,86.132c1.001,-4.078 -3.144,-9.169 -10.011,-7.511" style="fill:none;stroke:#000;stroke-width:1.7px;stroke-miterlimit:1.5;"/><path d="M33.614,99.422c-2.176,-3.591 -8.706,-4.261 -12.39,1.768" style="fill:none;stroke:#000;stroke-width:1.7px;stroke-miterlimit:1.5;"/><path d="M38.694,111.477c-4.078,-1.001 -9.169,3.144 -7.511,10.011" style="fill:none;stroke:#000;stroke-width:1.7px;stroke-miterlimit:1.5;"/><path d="M51.984,116.824c-3.591,2.176 -4.261,8.706 1.768,12.39" style="fill:none;stroke:#000;stroke-width:1.7px;stroke-miterlimit:1.5;"/><path d="M64.454,111.329c-1.001,4.078 3.144,9.169 10.011,7.511" style="fill:none;stroke:#000;stroke-width:1.7px;stroke-miterlimit:1.5;"/><path d="M69.386,98.454c2.176,3.591 8.706,4.261 12.39,-1.768" style="fill:none;stroke:#000;stroke-width:1.7px;stroke-miterlimit:1.5;"/><path d="M65.469,85.984c4.078,1.001 9.169,-3.144 7.511,-10.011" style="fill:none;stroke:#000;stroke-width:1.7px;stroke-miterlimit:1.5;"/></g><g id="One-Gold6" serif:id="One Gold"><g id="Gold-Small" serif:id="Gold Small"><circle cx="9.313" cy="36.28" r="3.378" style="fill:#00ffef;fill-opacity:0;stroke:#000;stroke-width:1.7px;stroke-miterlimit:1.5;"/><path d="M9.313,32.903c0.678,-0.411 0.805,-1.644 -0.334,-2.34" style="fill:none;stroke:#000;stroke-width:1.7px;stroke-miterlimit:1.5;"/><path d="M6.867,33.862c0.189,-0.77 -0.594,-1.732 -1.891,-1.419" style="fill:none;stroke:#000;stroke-width:1.7px;stroke-miterlimit:1.5;"/><path d="M5.936,36.372c-0.411,-0.678 -1.644,-0.805 -2.34,0.334" style="fill:none;stroke:#000;stroke-width:1.7px;stroke-miterlimit:1.5;"/><path d="M6.895,38.648c-0.77,-0.189 -1.732,0.594 -1.419,1.891" style="fill:none;stroke:#000;stroke-width:1.7px;stroke-miterlimit:1.5;"/><path d="M9.405,39.658c-0.678,0.411 -0.805,1.644 0.334,2.34" style="fill:none;stroke:#000;stroke-width:1.7px;stroke-miterlimit:1.5;"/><path d="M11.76,38.62c-0.189,0.77 0.594,1.732 1.891,1.419" style="fill:none;stroke:#000;stroke-width:1.7px;stroke-miterlimit:1.5;"/><path d="M12.691,36.189c0.411,0.678 1.644,0.805 2.34,-0.334" style="fill:none;stroke:#000;stroke-width:1.7px;stroke-miterlimit:1.5;"/><path d="M11.951,33.834c0.77,0.189 1.732,-0.594 1.419,-1.891" style="fill:none;stroke:#000;stroke-width:1.7px;stroke-miterlimit:1.5;"/></g><g id="Gold-Small1" serif:id="Gold Small"><circle cx="93.687" cy="36.28" r="3.378" style="fill:#00ffef;fill-opacity:0;stroke:#000;stroke-width:1.7px;stroke-miterlimit:1.5;"/><path d="M93.687,32.903c0.678,-0.411 0.805,-1.644 -0.334,-2.34" style="fill:none;stroke:#000;stroke-width:1.7px;stroke-miterlimit:1.5;"/><path d="M91.24,33.862c0.189,-0.77 -0.594,-1.732 -1.891,-1.419" style="fill:none;stroke:#000;stroke-width:1.7px;stroke-miterlimit:1.5;"/><path d="M90.309,36.372c-0.411,-0.678 -1.644,-0.805 -2.34,0.334" style="fill:none;stroke:#000;stroke-width:1.7px;stroke-miterlimit:1.5;"/><path d="M91.268,38.648c-0.77,-0.189 -1.732,0.594 -1.419,1.891" style="fill:none;stroke:#000;stroke-width:1.7px;stroke-miterlimit:1.5;"/><path d="M93.778,39.658c-0.678,0.411 -0.805,1.644 0.334,2.34" style="fill:none;stroke:#000;stroke-width:1.7px;stroke-miterlimit:1.5;"/><path d="M96.133,38.62c-0.189,0.77 0.594,1.732 1.891,1.419" style="fill:none;stroke:#000;stroke-width:1.7px;stroke-miterlimit:1.5;"/><path d="M97.064,36.189c0.411,0.678 1.644,0.805 2.34,-0.334" style="fill:none;stroke:#000;stroke-width:1.7px;stroke-miterlimit:1.5;"/><path d="M96.325,33.834c0.77,0.189 1.732,-0.594 1.419,-1.891" style="fill:none;stroke:#000;stroke-width:1.7px;stroke-miterlimit:1.5;"/></g><g id="Gold-Small2" serif:id="Gold Small"><circle cx="9.313" cy="123.72" r="3.378" style="fill:#00ffef;fill-opacity:0;stroke:#000;stroke-width:1.7px;stroke-miterlimit:1.5;"/><path d="M9.313,127.097c0.678,0.411 0.805,1.644 -0.334,2.34" style="fill:none;stroke:#000;stroke-width:1.7px;stroke-miterlimit:1.5;"/><path d="M6.867,126.138c0.189,0.77 -0.594,1.732 -1.891,1.419" style="fill:none;stroke:#000;stroke-width:1.7px;stroke-miterlimit:1.5;"/><path d="M5.936,123.628c-0.411,0.678 -1.644,0.805 -2.34,-0.334" style="fill:none;stroke:#000;stroke-width:1.7px;stroke-miterlimit:1.5;"/><path d="M6.895,121.352c-0.77,0.189 -1.732,-0.594 -1.419,-1.891" style="fill:none;stroke:#000;stroke-width:1.7px;stroke-miterlimit:1.5;"/><path d="M9.405,120.342c-0.678,-0.411 -0.805,-1.644 0.334,-2.34" style="fill:none;stroke:#000;stroke-width:1.7px;stroke-miterlimit:1.5;"/><path d="M11.76,121.38c-0.189,-0.77 0.594,-1.732 1.891,-1.419" style="fill:none;stroke:#000;stroke-width:1.7px;stroke-miterlimit:1.5;"/><path d="M12.691,123.811c0.411,-0.678 1.644,-0.805 2.34,0.334" style="fill:none;stroke:#000;stroke-width:1.7px;stroke-miterlimit:1.5;"/><path d="M11.951,126.166c0.77,-0.189 1.732,0.594 1.419,1.891" style="fill:none;stroke:#000;stroke-width:1.7px;stroke-miterlimit:1.5;"/></g><g id="Gold-Small3" serif:id="Gold Small"><circle cx="93.687" cy="123.72" r="3.378" style="fill:#00ffef;fill-opacity:0;stroke:#000;stroke-width:1.7px;stroke-miterlimit:1.5;"/><path d="M93.687,127.097c0.678,0.411 0.805,1.644 -0.334,2.34" style="fill:none;stroke:#000;stroke-width:1.7px;stroke-miterlimit:1.5;"/><path d="M91.24,126.138c0.189,0.77 -0.594,1.732 -1.891,1.419" style="fill:none;stroke:#000;stroke-width:1.7px;stroke-miterlimit:1.5;"/><path d="M90.309,123.628c-0.411,0.678 -1.644,0.805 -2.34,-0.334" style="fill:none;stroke:#000;stroke-width:1.7px;stroke-miterlimit:1.5;"/><path d="M91.268,121.352c-0.77,0.189 -1.732,-0.594 -1.419,-1.891" style="fill:none;stroke:#000;stroke-width:1.7px;stroke-miterlimit:1.5;"/><path d="M93.778,120.342c-0.678,-0.411 -0.805,-1.644 0.334,-2.34" style="fill:none;stroke:#000;stroke-width:1.7px;stroke-miterlimit:1.5;"/><path d="M96.133,121.38c-0.189,-0.77 0.594,-1.732 1.891,-1.419" style="fill:none;stroke:#000;stroke-width:1.7px;stroke-miterlimit:1.5;"/><path d="M97.064,123.811c0.411,-0.678 1.644,-0.805 2.34,0.334" style="fill:none;stroke:#000;stroke-width:1.7px;stroke-miterlimit:1.5;"/><path d="M96.325,126.166c0.77,-0.189 1.732,0.594 1.419,1.891" style="fill:none;stroke:#000;stroke-width:1.7px;stroke-miterlimit:1.5;"/></g></g></g></g></svg>