<?xml version="1.0" encoding="UTF-8" standalone="no"?><!DOCTYPE svg PUBLIC "-//W3C//DTD SVG 1.1//EN" "http://www.w3.org/Graphics/SVG/1.1/DTD/svg11.dtd"><svg width="100%" height="100%" viewBox="0 0 103 160" version="1.1" xmlns="http://www.w3.org/2000/svg" xmlns:xlink="http://www.w3.org/1999/xlink" xml:space="preserve" xmlns:serif="http://www.serif.com/" style="fill-rule:evenodd;clip-rule:evenodd;stroke-linecap:round;stroke-miterlimit:2;"><g id="Color"><rect id="Phosphorus" x="0" y="0" width="103" height="160" style="fill:#ff8b00;"/></g><g id="Base-Metal-Background" serif:id="Base Metal Background"><g id="Numeral-Background" serif:id="Numeral Background"><path d="M31.656,-0c0.07,0.483 0.106,0.977 0.106,1.479l0,31.43c0,5.683 -4.614,10.297 -10.297,10.297l-20.594,0c-0.293,0 -0.584,-0.012 -0.871,-0.036l0,-43.169l31.656,-0Z" style="fill:none;stroke:#fff;stroke-width:3.1px;"/><path d="M31.656,-0c0.07,0.483 0.106,0.977 0.106,1.479l0,31.43c0,5.683 -4.614,10.297 -10.297,10.297l-20.594,0c-0.293,0 -0.584,-0.012 -0.871,-0.036l0,-43.169l31.656,-0Z"/><path d="M71.344,-0c-0.07,0.483 -0.106,0.977 -0.106,1.479l0,31.43c0,5.683 4.614,10.297 10.297,10.297l20.594,0c0.293,0 0.584,-0.012 0.871,-0.036l0,-43.169l-31.656,-0Z" style="fill:none;stroke:#fff;stroke-width:3.1px;"/><path d="M71.344,-0c-0.07,0.483 -0.106,0.977 -0.106,1.479l0,31.43c0,5.683 4.614,10.297 10.297,10.297l20.594,0c0.293,0 0.584,-0.012 0.871,-0.036l0,-43.169l-31.656,-0Z"/><path d="M31.656,160c0.07,-0.483 0.106,-0.977 0.106,-1.479l0,-31.43c0,-5.683 -4.614,-10.297 -10.297,-10.297l-20.594,0c-0.293,0 -0.584,0.012 -0.871,0.036l0,43.169l31.656,0Z" style="fill:none;stroke:#fff;stroke-width:3.1px;"/><path d="M31.656,160c0.07,-0.483 0.106,-0.977 0.106,-1.479l0,-31.43c0,-5.683 -4.614,-10.297 -10.297,-10.297l-20.594,0c-0.293,0 -0.584,0.012 -0.871,0.036l0,43.169l31.656,0Z"/><path d="M71.344,160c-0.07,-0.483 -0.106,-0.977 -0.106,-1.479l0,-31.43c0,-5.683 4.614,-10.297 10.297,-10.297l20.594,0c0.293,0 0.584,0.012 0.871,0.036l0,43.169l-31.656,0Z" style="fill:none;stroke:#fff;stroke-width:3.1px;"/><path d="M71.344,160c-0.07,-0.483 -0.106,-0.977 -0.106,-1.479l0,-31.43c0,-5.683 4.614,-10.297 10.297,-10.297l20.594,0c0.293,0 0.584,0.012 0.871,0.036l0,43.169l-31.656,0Z"/></g><circle id="Large-circle" serif:id="Large circle" cx="51.5" cy="80" r="34.156" style="fill:#fff;"/><g id="Small-Circles" serif:id="Small Circles"><circle cx="15" cy="43" r="14" style="fill:#fff;"/><circle cx="88" cy="43" r="14" style="fill:#fff;"/><circle cx="15" cy="117" r="14" style="fill:#fff;"/><circle cx="88" cy="117" r="14" style="fill:#fff;"/></g></g><g id="Phospherus"><g id="Phospherus1" serif:id="Phospherus"><path d="M15.031,33.174l5.481,10.962l-10.962,0l5.481,-10.962Z" style="fill:#00ffef;fill-opacity:0;stroke:#000;stroke-width:1.7px;stroke-linejoin:round;stroke-miterlimit:1.5;"/><path d="M15.031,44.136l0,9.1" style="fill:none;stroke:#000;stroke-width:1.7px;stroke-linejoin:round;stroke-miterlimit:1.5;"/><path d="M10.826,47.449l8.411,0" style="fill:none;stroke:#000;stroke-width:1.7px;stroke-linejoin:round;stroke-miterlimit:1.5;"/><path d="M10.826,49.931l8.411,0" style="fill:none;stroke:#000;stroke-width:1.7px;stroke-linejoin:round;stroke-miterlimit:1.5;"/></g><g id="Phospherus-Large" serif:id="Phospherus Large"><path d="M51.5,57.205l12.455,24.91l-24.91,0l12.455,-24.91Z" style="fill:#00ffef;fill-opacity:0;stroke:#000;stroke-width:1.7px;stroke-linejoin:round;stroke-miterlimit:1.5;"/><path d="M51.5,82.115l0,20.68" style="fill:none;stroke:#000;stroke-width:1.7px;stroke-linejoin:round;stroke-miterlimit:1.5;"/><path d="M41.943,89.644l19.113,0" style="fill:none;stroke:#000;stroke-width:1.7px;stroke-linejoin:round;stroke-miterlimit:1.5;"/><path d="M41.943,95.284l19.113,0" style="fill:none;stroke:#000;stroke-width:1.7px;stroke-linejoin:round;stroke-miterlimit:1.5;"/></g><g id="Phospherus2" serif:id="Phospherus"><path d="M87.969,33.174l5.481,10.962l-10.962,0l5.481,-10.962Z" style="fill:#00ffef;fill-opacity:0;stroke:#000;stroke-width:1.7px;stroke-linejoin:round;stroke-miterlimit:1.5;"/><path d="M87.969,44.136l0,9.1" style="fill:none;stroke:#000;stroke-width:1.7px;stroke-linejoin:round;stroke-miterlimit:1.5;"/><path d="M83.764,47.449l8.411,0" style="fill:none;stroke:#000;stroke-width:1.7px;stroke-linejoin:round;stroke-miterlimit:1.5;"/><path d="M83.764,49.931l8.411,0" style="fill:none;stroke:#000;stroke-width:1.7px;stroke-linejoin:round;stroke-miterlimit:1.5;"/></g><g id="Phospherus3" serif:id="Phospherus"><path d="M87.969,126.826l-5.481,-10.962l10.962,0l-5.481,10.962Z" style="fill:#00ffef;fill-opacity:0;stroke:#000;stroke-width:1.7px;stroke-linejoin:round;stroke-miterlimit:1.5;"/><path d="M87.969,115.864l0,-9.1" style="fill:none;stroke:#000;stroke-width:1.7px;stroke-linejoin:round;stroke-miterlimit:1.5;"/><path d="M92.174,112.551l-8.411,-0" style="fill:none;stroke:#000;stroke-width:1.7px;stroke-linejoin:round;stroke-miterlimit:1.5;"/><path d="M92.174,110.069l-8.411,-0" style="fill:none;stroke:#000;stroke-width:1.7px;stroke-linejoin:round;stroke-miterlimit:1.5;"/></g><g id="Phospherus4" serif:id="Phospherus"><path d="M15.031,126.826l-5.481,-10.962l10.962,0l-5.481,10.962Z" style="fill:#00ffef;fill-opacity:0;stroke:#000;stroke-width:1.7px;stroke-linejoin:round;stroke-miterlimit:1.5;"/><path d="M15.031,115.864l0,-9.1" style="fill:none;stroke:#000;stroke-width:1.7px;stroke-linejoin:round;stroke-miterlimit:1.5;"/><path d="M19.236,112.551l-8.411,-0" style="fill:none;stroke:#000;stroke-width:1.7px;stroke-linejoin:round;stroke-miterlimit:1.5;"/><path d="M19.236,110.069l-8.411,-0" style="fill:none;stroke:#000;stroke-width:1.7px;stroke-linejoin:round;stroke-miterlimit:1.5;"/></g></g></svg>