<?xml version="1.0" encoding="UTF-8" standalone="no"?><!DOCTYPE svg PUBLIC "-//W3C//DTD SVG 1.1//EN" "http://www.w3.org/Graphics/SVG/1.1/DTD/svg11.dtd"><svg width="100%" height="100%" viewBox="0 0 103 160" version="1.1" xmlns="http://www.w3.org/2000/svg" xmlns:xlink="http://www.w3.org/1999/xlink" xml:space="preserve" xmlns:serif="http://www.serif.com/" style="fill-rule:evenodd;clip-rule:evenodd;stroke-linecap:round;stroke-miterlimit:2;"><g id="Color"><rect id="Silver" x="0" y="0" width="103" height="160" style="fill:#808080;"/></g><g id="Base-Metal-Background" serif:id="Base Metal Background"><g id="Numeral-Background" serif:id="Numeral Background"><path d="M31.656,-0c0.07,0.483 0.106,0.977 0.106,1.479l0,31.43c0,5.683 -4.614,10.297 -10.297,10.297l-20.594,0c-0.293,0 -0.584,-0.012 -0.871,-0.036l0,-43.169l31.656,-0Z" style="fill:none;stroke:#fff;stroke-width:3.1px;"/><path d="M31.656,-0c0.07,0.483 0.106,0.977 0.106,1.479l0,31.43c0,5.683 -4.614,10.297 -10.297,10.297l-20.594,0c-0.293,0 -0.584,-0.012 -0.871,-0.036l0,-43.169l31.656,-0Z"/><path d="M71.344,-0c-0.07,0.483 -0.106,0.977 -0.106,1.479l0,31.43c0,5.683 4.614,10.297 10.297,10.297l20.594,0c0.293,0 0.584,-0.012 0.871,-0.036l0,-43.169l-31.656,-0Z" style="fill:none;stroke:#fff;stroke-width:3.1px;"/><path d="M71.344,-0c-0.07,0.483 -0.106,0.977 -0.106,1.479l0,31.43c0,5.683 4.614,10.297 10.297,10.297l20.594,0c0.293,0 0.584,-0.012 0.871,-0.036l0,-43.169l-31.656,-0Z"/><path d="M31.656,160c0.07,-0.483 0.106,-0.977 0.106,-1.479l0,-31.43c0,-5.683 -4.614,-10.297 -10.297,-10.297l-20.594,0c-0.293,0 -0.584,0.012 -0.871,0.036l0,43.169l31.656,0Z" style="fill:none;stroke:#fff;stroke-width:3.1px;"/><path d="M31.656,160c0.07,-0.483 0.106,-0.977 0.106,-1.479l0,-31.43c0,-5.683 -4.614,-10.297 -10.297,-10.297l-20.594,0c-0.293,0 -0.584,0.012 -0.871,0.036l0,43.169l31.656,0Z"/><path d="M71.344,160c-0.07,-0.483 -0.106,-0.977 -0.106,-1.479l0,-31.43c0,-5.683 4.614,-10.297 10.297,-10.297l20.594,0c0.293,0 0.584,0.012 0.871,0.036l0,43.169l-31.656,0Z" style="fill:none;stroke:#fff;stroke-width:3.1px;"/><path d="M71.344,160c-0.07,-0.483 -0.106,-0.977 -0.106,-1.479l0,-31.43c0,-5.683 4.614,-10.297 10.297,-10.297l20.594,0c0.293,0 0.584,0.012 0.871,0.036l0,43.169l-31.656,0Z"/></g><circle id="Large-circle" serif:id="Large circle" cx="51.5" cy="80" r="34.156" style="fill:#fff;"/><g id="Small-Circles" serif:id="Small Circles"><circle cx="15" cy="43" r="14" style="fill:#fff;"/><circle cx="88" cy="43" r="14" style="fill:#fff;"/><circle cx="15" cy="117" r="14" style="fill:#fff;"/><circle cx="88" cy="117" r="14" style="fill:#fff;"/></g></g><g id="Silver1" serif:id="Silver"><g id="Silver2" serif:id="Silver"><path d="M7.703,34.804l0.005,-0.004c1.575,-1.028 3.455,-1.626 5.474,-1.626c5.536,0 10.031,4.495 10.031,10.031c0,5.536 -4.495,10.031 -10.031,10.031c-2.389,0 -4.584,-0.837 -6.307,-2.233l-0.028,-0.023c0.202,0.015 0.407,0.023 0.613,0.023c4.471,0 8.102,-3.63 8.102,-8.102c0,-4.39 -3.5,-7.97 -7.859,-8.098Z"/><path d="M7.703,34.804c0.002,-0.001 0.004,-0.002 0.005,-0.004c1.575,-1.028 3.455,-1.626 5.474,-1.626c5.536,0 10.031,4.495 10.031,10.031c0,5.536 -4.495,10.031 -10.031,10.031c-2.389,0 -4.584,-0.837 -6.307,-2.233c-0.009,-0.008 -0.019,-0.015 -0.028,-0.023c0.202,0.015 0.407,0.023 0.613,0.023c4.471,0 8.102,-3.63 8.102,-8.102c0,-4.39 -3.5,-7.97 -7.859,-8.098Z" style="fill:#00ffef;fill-opacity:0;stroke:#000;stroke-width:1.7px;stroke-linejoin:round;stroke-miterlimit:1.5;"/></g><g id="Silver-Large" serif:id="Silver Large"><path d="M34.848,60.908l0.012,-0.008c3.578,-2.337 7.852,-3.695 12.44,-3.695c12.581,0 22.795,10.214 22.795,22.795c0,12.581 -10.214,22.795 -22.795,22.795c-5.428,0 -10.416,-1.901 -14.332,-5.074l-0.064,-0.052c0.46,0.035 0.925,0.052 1.394,0.052c10.161,0 18.41,-8.249 18.41,-18.41c0,-9.977 -7.953,-18.111 -17.86,-18.402Z"/><path d="M34.848,60.908c0.004,-0.003 0.008,-0.005 0.012,-0.008c3.578,-2.337 7.852,-3.695 12.44,-3.695c12.581,0 22.795,10.214 22.795,22.795c0,12.581 -10.214,22.795 -22.795,22.795c-5.428,0 -10.416,-1.901 -14.332,-5.074c-0.021,-0.017 -0.043,-0.035 -0.064,-0.052c0.46,0.035 0.925,0.052 1.394,0.052c10.161,0 18.41,-8.249 18.41,-18.41c0,-9.977 -7.953,-18.111 -17.86,-18.402Z" style="fill:#00ffef;fill-opacity:0;stroke:#000;stroke-width:1.7px;stroke-linejoin:round;stroke-miterlimit:1.5;"/></g><g id="Silver3" serif:id="Silver"><path d="M80.641,34.804l0.005,-0.004c1.575,-1.028 3.455,-1.626 5.474,-1.626c5.536,0 10.031,4.495 10.031,10.031c0,5.536 -4.495,10.031 -10.031,10.031c-2.389,0 -4.584,-0.837 -6.307,-2.233l-0.028,-0.023c0.202,0.015 0.407,0.023 0.613,0.023c4.471,0 8.102,-3.63 8.102,-8.102c0,-4.39 -3.5,-7.97 -7.859,-8.098Z"/><path d="M80.641,34.804c0.002,-0.001 0.004,-0.002 0.005,-0.004c1.575,-1.028 3.455,-1.626 5.474,-1.626c5.536,0 10.031,4.495 10.031,10.031c0,5.536 -4.495,10.031 -10.031,10.031c-2.389,0 -4.584,-0.837 -6.307,-2.233c-0.009,-0.008 -0.019,-0.015 -0.028,-0.023c0.202,0.015 0.407,0.023 0.613,0.023c4.471,0 8.102,-3.63 8.102,-8.102c0,-4.39 -3.5,-7.97 -7.859,-8.098Z" style="fill:#00ffef;fill-opacity:0;stroke:#000;stroke-width:1.7px;stroke-linejoin:round;stroke-miterlimit:1.5;"/></g><g id="Silver4" serif:id="Silver"><path d="M95.297,125.196l-0.005,0.004c-1.575,1.028 -3.455,1.626 -5.474,1.626c-5.536,0 -10.031,-4.495 -10.031,-10.031c0,-5.536 4.495,-10.031 10.031,-10.031c2.389,0 4.584,0.837 6.307,2.233l0.028,0.023c-0.202,-0.015 -0.407,-0.023 -0.613,-0.023c-4.471,0 -8.102,3.63 -8.102,8.102c0,4.39 3.5,7.97 7.859,8.098Z"/><path d="M95.297,125.196c-0.002,0.001 -0.004,0.002 -0.005,0.004c-1.575,1.028 -3.455,1.626 -5.474,1.626c-5.536,0 -10.031,-4.495 -10.031,-10.031c0,-5.536 4.495,-10.031 10.031,-10.031c2.389,0 4.584,0.837 6.307,2.233c0.009,0.008 0.019,0.015 0.028,0.023c-0.202,-0.015 -0.407,-0.023 -0.613,-0.023c-4.471,0 -8.102,3.63 -8.102,8.102c0,4.39 3.5,7.97 7.859,8.098Z" style="fill:#00ffef;fill-opacity:0;stroke:#000;stroke-width:1.7px;stroke-linejoin:round;stroke-miterlimit:1.5;"/></g><g id="Silver5" serif:id="Silver"><path d="M22.359,125.196l-0.005,0.004c-1.575,1.028 -3.455,1.626 -5.474,1.626c-5.536,0 -10.031,-4.495 -10.031,-10.031c0,-5.536 4.495,-10.031 10.031,-10.031c2.389,0 4.584,0.837 6.307,2.233l0.028,0.023c-0.202,-0.015 -0.407,-0.023 -0.613,-0.023c-4.471,0 -8.102,3.63 -8.102,8.102c0,4.39 3.5,7.97 7.859,8.098Z"/><path d="M22.359,125.196c-0.002,0.001 -0.004,0.002 -0.005,0.004c-1.575,1.028 -3.455,1.626 -5.474,1.626c-5.536,0 -10.031,-4.495 -10.031,-10.031c0,-5.536 4.495,-10.031 10.031,-10.031c2.389,0 4.584,0.837 6.307,2.233c0.009,0.008 0.019,0.015 0.028,0.023c-0.202,-0.015 -0.407,-0.023 -0.613,-0.023c-4.471,0 -8.102,3.63 -8.102,8.102c0,4.39 3.5,7.97 7.859,8.098Z" style="fill:#00ffef;fill-opacity:0;stroke:#000;stroke-width:1.7px;stroke-linejoin:round;stroke-miterlimit:1.5;"/></g></g></svg>