<?xml version="1.0" encoding="UTF-8" standalone="no"?><!DOCTYPE svg PUBLIC "-//W3C//DTD SVG 1.1//EN" "http://www.w3.org/Graphics/SVG/1.1/DTD/svg11.dtd"><svg width="100%" height="100%" viewBox="0 0 103 160" version="1.1" xmlns="http://www.w3.org/2000/svg" xmlns:xlink="http://www.w3.org/1999/xlink" xml:space="preserve" xmlns:serif="http://www.serif.com/" style="fill-rule:evenodd;clip-rule:evenodd;stroke-linecap:round;stroke-miterlimit:2;"><g id="Color"><rect id="Copper" x="0" y="0" width="103" height="160" style="fill:#00ffef;"/></g><g id="Base-Metal-Background" serif:id="Base Metal Background"><g id="Numeral-Background" serif:id="Numeral Background"><path d="M31.656,-0c0.07,0.483 0.106,0.977 0.106,1.479l0,31.43c0,5.683 -4.614,10.297 -10.297,10.297l-20.594,0c-0.293,0 -0.584,-0.012 -0.871,-0.036l0,-43.169l31.656,-0Z" style="fill:none;stroke:#fff;stroke-width:3.1px;"/><path d="M31.656,-0c0.07,0.483 0.106,0.977 0.106,1.479l0,31.43c0,5.683 -4.614,10.297 -10.297,10.297l-20.594,0c-0.293,0 -0.584,-0.012 -0.871,-0.036l0,-43.169l31.656,-0Z"/><path d="M71.344,-0c-0.07,0.483 -0.106,0.977 -0.106,1.479l0,31.43c0,5.683 4.614,10.297 10.297,10.297l20.594,0c0.293,0 0.584,-0.012 0.871,-0.036l0,-43.169l-31.656,-0Z" style="fill:none;stroke:#fff;stroke-width:3.1px;"/><path d="M71.344,-0c-0.07,0.483 -0.106,0.977 -0.106,1.479l0,31.43c0,5.683 4.614,10.297 10.297,10.297l20.594,0c0.293,0 0.584,-0.012 0.871,-0.036l0,-43.169l-31.656,-0Z"/><path d="M31.656,160c0.07,-0.483 0.106,-0.977 0.106,-1.479l0,-31.43c0,-5.683 -4.614,-10.297 -10.297,-10.297l-20.594,0c-0.293,0 -0.584,0.012 -0.871,0.036l0,43.169l31.656,0Z" style="fill:none;stroke:#fff;stroke-width:3.1px;"/><path d="M31.656,160c0.07,-0.483 0.106,-0.977 0.106,-1.479l0,-31.43c0,-5.683 -4.614,-10.297 -10.297,-10.297l-20.594,0c-0.293,0 -0.584,0.012 -0.871,0.036l0,43.169l31.656,0Z"/><path d="M71.344,160c-0.07,-0.483 -0.106,-0.977 -0.106,-1.479l0,-31.43c0,-5.683 4.614,-10.297 10.297,-10.297l20.594,0c0.293,0 0.584,0.012 0.871,0.036l0,43.169l-31.656,0Z" style="fill:none;stroke:#fff;stroke-width:3.1px;"/><path d="M71.344,160c-0.07,-0.483 -0.106,-0.977 -0.106,-1.479l0,-31.43c0,-5.683 4.614,-10.297 10.297,-10.297l20.594,0c0.293,0 0.584,0.012 0.871,0.036l0,43.169l-31.656,0Z"/></g><circle id="Large-circle" serif:id="Large circle" cx="51.5" cy="80" r="34.156" style="fill:#fff;"/><g id="Small-Circles" serif:id="Small Circles"><circle cx="15" cy="43" r="14" style="fill:#fff;"/><circle cx="88" cy="43" r="14" style="fill:#fff;"/><circle cx="15" cy="117" r="14" style="fill:#fff;"/><circle cx="88" cy="117" r="14" style="fill:#fff;"/></g></g><g id="Copper1" serif:id="Copper"><g id="Copper2" serif:id="Copper"><circle cx="15.031" cy="39.374" r="6.2" style="fill:#00ffef;fill-opacity:0;stroke:#000;stroke-width:1.7px;stroke-linejoin:round;stroke-miterlimit:1.5;"/><path d="M15.031,45.574l0,7.662" style="fill:none;stroke:#000;stroke-width:1.7px;stroke-linejoin:round;stroke-miterlimit:1.5;"/><path d="M10.994,49.405c0.813,0.812 2.095,1.452 4.037,0c1.942,-1.452 4.09,-0.87 4.67,0" style="fill:none;stroke:#000;stroke-width:1.7px;stroke-linejoin:round;stroke-miterlimit:1.5;"/></g><g id="Copper-Large" serif:id="Copper Large"><circle cx="51.5" cy="71.294" r="14.089" style="fill:#00ffef;fill-opacity:0;stroke:#000;stroke-width:1.7px;stroke-linejoin:round;stroke-miterlimit:1.5;"/><path d="M51.5,85.383l0,17.412" style="fill:none;stroke:#000;stroke-width:1.7px;stroke-linejoin:round;stroke-miterlimit:1.5;"/><path d="M42.326,94.089c1.847,1.845 4.761,3.3 9.174,0c4.413,-3.3 9.293,-1.977 10.612,0" style="fill:none;stroke:#000;stroke-width:1.7px;stroke-linejoin:round;stroke-miterlimit:1.5;"/></g><g id="Copper3" serif:id="Copper"><circle cx="87.969" cy="39.374" r="6.2" style="fill:#00ffef;fill-opacity:0;stroke:#000;stroke-width:1.7px;stroke-linejoin:round;stroke-miterlimit:1.5;"/><path d="M87.969,45.574l0,7.662" style="fill:none;stroke:#000;stroke-width:1.7px;stroke-linejoin:round;stroke-miterlimit:1.5;"/><path d="M83.932,49.405c0.813,0.812 2.095,1.452 4.037,0c1.942,-1.452 4.09,-0.87 4.67,0" style="fill:none;stroke:#000;stroke-width:1.7px;stroke-linejoin:round;stroke-miterlimit:1.5;"/></g><g id="Copper4" serif:id="Copper"><circle cx="87.969" cy="120.626" r="6.2" style="fill:#00ffef;fill-opacity:0;stroke:#000;stroke-width:1.7px;stroke-linejoin:round;stroke-miterlimit:1.5;"/><path d="M87.969,114.426l0,-7.662" style="fill:none;stroke:#000;stroke-width:1.7px;stroke-linejoin:round;stroke-miterlimit:1.5;"/><path d="M92.006,110.595c-0.813,-0.812 -2.095,-1.452 -4.037,0c-1.942,1.452 -4.09,0.87 -4.67,0" style="fill:none;stroke:#000;stroke-width:1.7px;stroke-linejoin:round;stroke-miterlimit:1.5;"/></g><g id="Copper5" serif:id="Copper"><circle cx="15.031" cy="120.626" r="6.2" style="fill:#00ffef;fill-opacity:0;stroke:#000;stroke-width:1.7px;stroke-linejoin:round;stroke-miterlimit:1.5;"/><path d="M15.031,114.426l0,-7.662" style="fill:none;stroke:#000;stroke-width:1.7px;stroke-linejoin:round;stroke-miterlimit:1.5;"/><path d="M19.068,110.595c-0.813,-0.812 -2.095,-1.452 -4.037,0c-1.942,1.452 -4.09,0.87 -4.67,0" style="fill:none;stroke:#000;stroke-width:1.7px;stroke-linejoin:round;stroke-miterlimit:1.5;"/></g></g></svg>