<?xml version="1.0" encoding="UTF-8" standalone="no"?><!DOCTYPE svg PUBLIC "-//W3C//DTD SVG 1.1//EN" "http://www.w3.org/Graphics/SVG/1.1/DTD/svg11.dtd"><svg width="100%" height="100%" viewBox="0 0 103 160" version="1.1" xmlns="http://www.w3.org/2000/svg" xmlns:xlink="http://www.w3.org/1999/xlink" xml:space="preserve" xmlns:serif="http://www.serif.com/" style="fill-rule:evenodd;clip-rule:evenodd;stroke-linecap:round;stroke-linejoin:round;stroke-miterlimit:2;"><g id="Color"><rect id="Gold" x="-0" y="0" width="103" height="160" style="fill:#eedb3c;"/></g><g id="Gold-Background" serif:id="Gold Background"><path d="M48.318,43.32l3.182,5.379l3.182,-5.379l35.443,58.092l-25.75,58.588l-25.75,0l-25.75,-58.588l35.443,-58.092Z" style="fill:#fff;"/><path d="M48.318,43.32l-9.677,-14.729l12.859,-19.572l12.859,19.572l-9.677,14.729l-3.182,-4.695l-3.182,4.695Z"/><path d="M54.682,43.32l-3.182,4.843l-3.182,-4.843l3.182,-4.695l3.182,4.695Z"/><g id="Numeral-Background" serif:id="Numeral Background"><path d="M0,50.89c0,0 10.594,-20.708 17.667,-31.005c10.354,-15.074 17.632,-19.885 17.632,-19.885l-35.299,0l0,50.89Z" style="fill:none;stroke:#fff;stroke-width:3.1px;"/><path d="M0,50.89c0,0 10.594,-20.708 17.667,-31.005c10.354,-15.074 17.632,-19.885 17.632,-19.885l-35.299,0l0,50.89Z"/><path d="M103,50.89c0,0 -10.594,-20.708 -17.667,-31.005c-10.354,-15.074 -17.632,-19.885 -17.632,-19.885l35.299,-0l0,50.89Z" style="fill:none;stroke:#fff;stroke-width:3.1px;"/><path d="M103,50.89c0,0 -10.594,-20.708 -17.667,-31.005c-10.354,-15.074 -17.632,-19.885 -17.632,-19.885l35.299,-0l0,50.89Z"/><path d="M0,109.11c0,0 10.594,20.708 17.667,31.005c10.354,15.074 17.632,19.885 17.632,19.885l-35.299,0l0,-50.89Z" style="fill:none;stroke:#fff;stroke-width:3.1px;"/><path d="M0,109.11c0,0 10.594,20.708 17.667,31.005c10.354,15.074 17.632,19.885 17.632,19.885l-35.299,0l0,-50.89Z"/><path d="M103,109.11c0,0 -10.594,20.708 -17.667,31.005c-10.354,15.074 -17.632,19.885 -17.632,19.885l35.299,0l0,-50.89Z" style="fill:none;stroke:#fff;stroke-width:3.1px;"/><path d="M103,109.11c0,0 -10.594,20.708 -17.667,31.005c-10.354,15.074 -17.632,19.885 -17.632,19.885l35.299,0l0,-50.89Z"/></g></g><g id="Gold1" serif:id="Gold"></g></svg>