<?xml version="1.0" encoding="UTF-8" standalone="no"?><!DOCTYPE svg PUBLIC "-//W3C//DTD SVG 1.1//EN" "http://www.w3.org/Graphics/SVG/1.1/DTD/svg11.dtd"><svg width="100%" height="100%" viewBox="0 0 103 160" version="1.1" xmlns="http://www.w3.org/2000/svg" xmlns:xlink="http://www.w3.org/1999/xlink" xml:space="preserve" xmlns:serif="http://www.serif.com/" style="fill-rule:evenodd;clip-rule:evenodd;stroke-linecap:round;stroke-linejoin:round;stroke-miterlimit:2;"><g id="Color"><rect id="Gold" x="-0" y="0" width="103" height="160" style="fill:#eedb3c;"/></g><g id="Gold-Background" serif:id="Gold Background"><path d="M48.318,43.32l3.182,5.379l3.182,-5.379l35.443,58.092l-25.75,58.588l-25.75,0l-25.75,-58.588l35.443,-58.092Z" style="fill:#fff;"/><path d="M48.318,43.32l-9.677,-14.729l12.859,-19.572l12.859,19.572l-9.677,14.729l-3.182,-4.695l-3.182,4.695Z"/><path d="M54.682,43.32l-3.182,4.843l-3.182,-4.843l3.182,-4.695l3.182,4.695Z"/><g id="Numeral-Background" serif:id="Numeral Background"><path d="M0,50.89c0,0 10.594,-20.708 17.667,-31.005c10.354,-15.074 17.632,-19.885 17.632,-19.885l-35.299,0l0,50.89Z" style="fill:none;stroke:#fff;stroke-width:3.1px;"/><path d="M0,50.89c0,0 10.594,-20.708 17.667,-31.005c10.354,-15.074 17.632,-19.885 17.632,-19.885l-35.299,0l0,50.89Z"/><path d="M103,50.89c0,0 -10.594,-20.708 -17.667,-31.005c-10.354,-15.074 -17.632,-19.885 -17.632,-19.885l35.299,-0l0,50.89Z" style="fill:none;stroke:#fff;stroke-width:3.1px;"/><path d="M103,50.89c0,0 -10.594,-20.708 -17.667,-31.005c-10.354,-15.074 -17.632,-19.885 -17.632,-19.885l35.299,-0l0,50.89Z"/><path d="M0,109.11c0,0 10.594,20.708 17.667,31.005c10.354,15.074 17.632,19.885 17.632,19.885l-35.299,0l0,-50.89Z" style="fill:none;stroke:#fff;stroke-width:3.1px;"/><path d="M0,109.11c0,0 10.594,20.708 17.667,31.005c10.354,15.074 17.632,19.885 17.632,19.885l-35.299,0l0,-50.89Z"/><path d="M103,109.11c0,0 -10.594,20.708 -17.667,31.005c-10.354,15.074 -17.632,19.885 -17.632,19.885l35.299,0l0,-50.89Z" style="fill:none;stroke:#fff;stroke-width:3.1px;"/><path d="M103,109.11c0,0 -10.594,20.708 -17.667,31.005c-10.354,15.074 -17.632,19.885 -17.632,19.885l35.299,0l0,-50.89Z"/></g><g id="Two-Gold" serif:id="Two Gold"><path id="Two-Gold1" serif:id="Two Gold" d="M16.738,31.769l0,22.724c0,2.049 -1.663,3.712 -3.712,3.712l-7.425,0c-2.049,0 -3.712,-1.663 -3.712,-3.712l0,-22.724c0,-2.049 1.663,-3.712 3.712,-3.712l7.425,0c2.049,0 3.712,1.663 3.712,3.712Z" style="fill:#fff;"/><path id="Two-Gold2" serif:id="Two Gold" d="M86.262,31.769l0,22.724c0,2.049 1.663,3.712 3.712,3.712l7.425,0c2.049,0 3.712,-1.663 3.712,-3.712l0,-22.724c0,-2.049 -1.663,-3.712 -3.712,-3.712l-7.425,0c-2.049,0 -3.712,1.663 -3.712,3.712Z" style="fill:#fff;"/><path id="Two-Gold3" serif:id="Two Gold" d="M16.738,128.231l0,-22.724c0,-2.049 -1.663,-3.712 -3.712,-3.712l-7.425,0c-2.049,0 -3.712,1.663 -3.712,3.712l0,22.724c0,2.049 1.663,3.712 3.712,3.712l7.425,0c2.049,0 3.712,-1.663 3.712,-3.712Z" style="fill:#fff;"/><path id="Two-Gold4" serif:id="Two Gold" d="M86.262,128.231l0,-22.724c0,-2.049 1.663,-3.712 3.712,-3.712l7.425,0c2.049,0 3.712,1.663 3.712,3.712l0,22.724c0,2.049 -1.663,3.712 -3.712,3.712l-7.425,0c-2.049,0 -3.712,-1.663 -3.712,-3.712Z" style="fill:#fff;"/></g></g><g id="Gold1" serif:id="Gold"><g id="Two-Gold5" serif:id="Two Gold"><g id="Two-Gold6" serif:id="Two Gold"><g id="Gold-Small" serif:id="Gold Small"><circle cx="9.313" cy="36.333" r="3.378" style="fill:#00ffef;fill-opacity:0;stroke:#000;stroke-width:1.7px;stroke-miterlimit:1.5;"/><path d="M9.313,32.955c0.678,-0.411 0.805,-1.644 -0.334,-2.34" style="fill:none;stroke:#000;stroke-width:1.7px;stroke-miterlimit:1.5;"/><path d="M6.867,33.915c0.189,-0.77 -0.594,-1.732 -1.891,-1.419" style="fill:none;stroke:#000;stroke-width:1.7px;stroke-miterlimit:1.5;"/><path d="M5.936,36.424c-0.411,-0.678 -1.644,-0.805 -2.34,0.334" style="fill:none;stroke:#000;stroke-width:1.7px;stroke-miterlimit:1.5;"/><path d="M6.895,38.701c-0.77,-0.189 -1.732,0.594 -1.419,1.891" style="fill:none;stroke:#000;stroke-width:1.7px;stroke-miterlimit:1.5;"/><path d="M9.405,39.711c-0.678,0.411 -0.805,1.644 0.334,2.34" style="fill:none;stroke:#000;stroke-width:1.7px;stroke-miterlimit:1.5;"/><path d="M11.76,38.673c-0.189,0.77 0.594,1.732 1.891,1.419" style="fill:none;stroke:#000;stroke-width:1.7px;stroke-miterlimit:1.5;"/><path d="M12.691,36.242c0.411,0.678 1.644,0.805 2.34,-0.334" style="fill:none;stroke:#000;stroke-width:1.7px;stroke-miterlimit:1.5;"/><path d="M11.951,33.887c0.77,0.189 1.732,-0.594 1.419,-1.891" style="fill:none;stroke:#000;stroke-width:1.7px;stroke-miterlimit:1.5;"/></g><g id="Gold-Small1" serif:id="Gold Small"><circle cx="9.313" cy="50.246" r="3.378" style="fill:#00ffef;fill-opacity:0;stroke:#000;stroke-width:1.7px;stroke-miterlimit:1.5;"/><path d="M9.313,46.868c0.678,-0.411 0.805,-1.644 -0.334,-2.34" style="fill:none;stroke:#000;stroke-width:1.7px;stroke-miterlimit:1.5;"/><path d="M6.867,47.828c0.189,-0.77 -0.594,-1.732 -1.891,-1.419" style="fill:none;stroke:#000;stroke-width:1.7px;stroke-miterlimit:1.5;"/><path d="M5.936,50.337c-0.411,-0.678 -1.644,-0.805 -2.34,0.334" style="fill:none;stroke:#000;stroke-width:1.7px;stroke-miterlimit:1.5;"/><path d="M6.895,52.614c-0.77,-0.189 -1.732,0.594 -1.419,1.891" style="fill:none;stroke:#000;stroke-width:1.7px;stroke-miterlimit:1.5;"/><path d="M9.405,53.624c-0.678,0.411 -0.805,1.644 0.334,2.34" style="fill:none;stroke:#000;stroke-width:1.7px;stroke-miterlimit:1.5;"/><path d="M11.76,52.586c-0.189,0.77 0.594,1.732 1.891,1.419" style="fill:none;stroke:#000;stroke-width:1.7px;stroke-miterlimit:1.5;"/><path d="M12.691,50.155c0.411,0.678 1.644,0.805 2.34,-0.334" style="fill:none;stroke:#000;stroke-width:1.7px;stroke-miterlimit:1.5;"/><path d="M11.951,47.8c0.77,0.189 1.732,-0.594 1.419,-1.891" style="fill:none;stroke:#000;stroke-width:1.7px;stroke-miterlimit:1.5;"/></g></g><g id="Two-Gold7" serif:id="Two Gold"><g id="Gold-Small2" serif:id="Gold Small"><circle cx="93.687" cy="36.333" r="3.378" style="fill:#00ffef;fill-opacity:0;stroke:#000;stroke-width:1.7px;stroke-miterlimit:1.5;"/><path d="M93.687,32.955c0.678,-0.411 0.805,-1.644 -0.334,-2.34" style="fill:none;stroke:#000;stroke-width:1.7px;stroke-miterlimit:1.5;"/><path d="M91.24,33.915c0.189,-0.77 -0.594,-1.732 -1.891,-1.419" style="fill:none;stroke:#000;stroke-width:1.7px;stroke-miterlimit:1.5;"/><path d="M90.309,36.424c-0.411,-0.678 -1.644,-0.805 -2.34,0.334" style="fill:none;stroke:#000;stroke-width:1.7px;stroke-miterlimit:1.5;"/><path d="M91.268,38.701c-0.77,-0.189 -1.732,0.594 -1.419,1.891" style="fill:none;stroke:#000;stroke-width:1.7px;stroke-miterlimit:1.5;"/><path d="M93.778,39.711c-0.678,0.411 -0.805,1.644 0.334,2.34" style="fill:none;stroke:#000;stroke-width:1.7px;stroke-miterlimit:1.5;"/><path d="M96.133,38.673c-0.189,0.77 0.594,1.732 1.891,1.419" style="fill:none;stroke:#000;stroke-width:1.7px;stroke-miterlimit:1.5;"/><path d="M97.064,36.242c0.411,0.678 1.644,0.805 2.34,-0.334" style="fill:none;stroke:#000;stroke-width:1.7px;stroke-miterlimit:1.5;"/><path d="M96.325,33.887c0.77,0.189 1.732,-0.594 1.419,-1.891" style="fill:none;stroke:#000;stroke-width:1.7px;stroke-miterlimit:1.5;"/></g><g id="Gold-Small3" serif:id="Gold Small"><circle cx="93.687" cy="50.246" r="3.378" style="fill:#00ffef;fill-opacity:0;stroke:#000;stroke-width:1.7px;stroke-miterlimit:1.5;"/><path d="M93.687,46.868c0.678,-0.411 0.805,-1.644 -0.334,-2.34" style="fill:none;stroke:#000;stroke-width:1.7px;stroke-miterlimit:1.5;"/><path d="M91.24,47.828c0.189,-0.77 -0.594,-1.732 -1.891,-1.419" style="fill:none;stroke:#000;stroke-width:1.7px;stroke-miterlimit:1.5;"/><path d="M90.309,50.337c-0.411,-0.678 -1.644,-0.805 -2.34,0.334" style="fill:none;stroke:#000;stroke-width:1.7px;stroke-miterlimit:1.5;"/><path d="M91.268,52.614c-0.77,-0.189 -1.732,0.594 -1.419,1.891" style="fill:none;stroke:#000;stroke-width:1.7px;stroke-miterlimit:1.5;"/><path d="M93.778,53.624c-0.678,0.411 -0.805,1.644 0.334,2.34" style="fill:none;stroke:#000;stroke-width:1.7px;stroke-miterlimit:1.5;"/><path d="M96.133,52.586c-0.189,0.77 0.594,1.732 1.891,1.419" style="fill:none;stroke:#000;stroke-width:1.7px;stroke-miterlimit:1.5;"/><path d="M97.064,50.155c0.411,0.678 1.644,0.805 2.34,-0.334" style="fill:none;stroke:#000;stroke-width:1.7px;stroke-miterlimit:1.5;"/><path d="M96.325,47.8c0.77,0.189 1.732,-0.594 1.419,-1.891" style="fill:none;stroke:#000;stroke-width:1.7px;stroke-miterlimit:1.5;"/></g></g><g id="Two-Gold8" serif:id="Two Gold"><g id="Gold-Small4" serif:id="Gold Small"><circle cx="9.313" cy="123.667" r="3.378" style="fill:#00ffef;fill-opacity:0;stroke:#000;stroke-width:1.7px;stroke-miterlimit:1.5;"/><path d="M9.313,127.045c0.678,0.411 0.805,1.644 -0.334,2.34" style="fill:none;stroke:#000;stroke-width:1.7px;stroke-miterlimit:1.5;"/><path d="M6.867,126.085c0.189,0.77 -0.594,1.732 -1.891,1.419" style="fill:none;stroke:#000;stroke-width:1.7px;stroke-miterlimit:1.5;"/><path d="M5.936,123.576c-0.411,0.678 -1.644,0.805 -2.34,-0.334" style="fill:none;stroke:#000;stroke-width:1.7px;stroke-miterlimit:1.5;"/><path d="M6.895,121.299c-0.77,0.189 -1.732,-0.594 -1.419,-1.891" style="fill:none;stroke:#000;stroke-width:1.7px;stroke-miterlimit:1.5;"/><path d="M9.405,120.289c-0.678,-0.411 -0.805,-1.644 0.334,-2.34" style="fill:none;stroke:#000;stroke-width:1.7px;stroke-miterlimit:1.5;"/><path d="M11.76,121.327c-0.189,-0.77 0.594,-1.732 1.891,-1.419" style="fill:none;stroke:#000;stroke-width:1.7px;stroke-miterlimit:1.5;"/><path d="M12.691,123.758c0.411,-0.678 1.644,-0.805 2.34,0.334" style="fill:none;stroke:#000;stroke-width:1.7px;stroke-miterlimit:1.5;"/><path d="M11.951,126.113c0.77,-0.189 1.732,0.594 1.419,1.891" style="fill:none;stroke:#000;stroke-width:1.7px;stroke-miterlimit:1.5;"/></g><g id="Gold-Small5" serif:id="Gold Small"><circle cx="9.313" cy="109.754" r="3.378" style="fill:#00ffef;fill-opacity:0;stroke:#000;stroke-width:1.7px;stroke-miterlimit:1.5;"/><path d="M9.313,113.132c0.678,0.411 0.805,1.644 -0.334,2.34" style="fill:none;stroke:#000;stroke-width:1.7px;stroke-miterlimit:1.5;"/><path d="M6.867,112.172c0.189,0.77 -0.594,1.732 -1.891,1.419" style="fill:none;stroke:#000;stroke-width:1.7px;stroke-miterlimit:1.5;"/><path d="M5.936,109.663c-0.411,0.678 -1.644,0.805 -2.34,-0.334" style="fill:none;stroke:#000;stroke-width:1.7px;stroke-miterlimit:1.5;"/><path d="M6.895,107.386c-0.77,0.189 -1.732,-0.594 -1.419,-1.891" style="fill:none;stroke:#000;stroke-width:1.7px;stroke-miterlimit:1.5;"/><path d="M9.405,106.376c-0.678,-0.411 -0.805,-1.644 0.334,-2.34" style="fill:none;stroke:#000;stroke-width:1.7px;stroke-miterlimit:1.5;"/><path d="M11.76,107.414c-0.189,-0.77 0.594,-1.732 1.891,-1.419" style="fill:none;stroke:#000;stroke-width:1.7px;stroke-miterlimit:1.5;"/><path d="M12.691,109.845c0.411,-0.678 1.644,-0.805 2.34,0.334" style="fill:none;stroke:#000;stroke-width:1.7px;stroke-miterlimit:1.5;"/><path d="M11.951,112.2c0.77,-0.189 1.732,0.594 1.419,1.891" style="fill:none;stroke:#000;stroke-width:1.7px;stroke-miterlimit:1.5;"/></g></g><g id="Two-Gold9" serif:id="Two Gold"><g id="Gold-Small6" serif:id="Gold Small"><circle cx="93.687" cy="123.667" r="3.378" style="fill:#00ffef;fill-opacity:0;stroke:#000;stroke-width:1.7px;stroke-miterlimit:1.5;"/><path d="M93.687,127.045c0.678,0.411 0.805,1.644 -0.334,2.34" style="fill:none;stroke:#000;stroke-width:1.7px;stroke-miterlimit:1.5;"/><path d="M91.24,126.085c0.189,0.77 -0.594,1.732 -1.891,1.419" style="fill:none;stroke:#000;stroke-width:1.7px;stroke-miterlimit:1.5;"/><path d="M90.309,123.576c-0.411,0.678 -1.644,0.805 -2.34,-0.334" style="fill:none;stroke:#000;stroke-width:1.7px;stroke-miterlimit:1.5;"/><path d="M91.268,121.299c-0.77,0.189 -1.732,-0.594 -1.419,-1.891" style="fill:none;stroke:#000;stroke-width:1.7px;stroke-miterlimit:1.5;"/><path d="M93.778,120.289c-0.678,-0.411 -0.805,-1.644 0.334,-2.34" style="fill:none;stroke:#000;stroke-width:1.7px;stroke-miterlimit:1.5;"/><path d="M96.133,121.327c-0.189,-0.77 0.594,-1.732 1.891,-1.419" style="fill:none;stroke:#000;stroke-width:1.7px;stroke-miterlimit:1.5;"/><path d="M97.064,123.758c0.411,-0.678 1.644,-0.805 2.34,0.334" style="fill:none;stroke:#000;stroke-width:1.7px;stroke-miterlimit:1.5;"/><path d="M96.325,126.113c0.77,-0.189 1.732,0.594 1.419,1.891" style="fill:none;stroke:#000;stroke-width:1.7px;stroke-miterlimit:1.5;"/></g><g id="Gold-Small7" serif:id="Gold Small"><circle cx="93.687" cy="109.754" r="3.378" style="fill:#00ffef;fill-opacity:0;stroke:#000;stroke-width:1.7px;stroke-miterlimit:1.5;"/><path d="M93.687,113.132c0.678,0.411 0.805,1.644 -0.334,2.34" style="fill:none;stroke:#000;stroke-width:1.7px;stroke-miterlimit:1.5;"/><path d="M91.24,112.172c0.189,0.77 -0.594,1.732 -1.891,1.419" style="fill:none;stroke:#000;stroke-width:1.7px;stroke-miterlimit:1.5;"/><path d="M90.309,109.663c-0.411,0.678 -1.644,0.805 -2.34,-0.334" style="fill:none;stroke:#000;stroke-width:1.7px;stroke-miterlimit:1.5;"/><path d="M91.268,107.386c-0.77,0.189 -1.732,-0.594 -1.419,-1.891" style="fill:none;stroke:#000;stroke-width:1.7px;stroke-miterlimit:1.5;"/><path d="M93.778,106.376c-0.678,-0.411 -0.805,-1.644 0.334,-2.34" style="fill:none;stroke:#000;stroke-width:1.7px;stroke-miterlimit:1.5;"/><path d="M96.133,107.414c-0.189,-0.77 0.594,-1.732 1.891,-1.419" style="fill:none;stroke:#000;stroke-width:1.7px;stroke-miterlimit:1.5;"/><path d="M97.064,109.845c0.411,-0.678 1.644,-0.805 2.34,0.334" style="fill:none;stroke:#000;stroke-width:1.7px;stroke-miterlimit:1.5;"/><path d="M96.325,112.2c0.77,-0.189 1.732,0.594 1.419,1.891" style="fill:none;stroke:#000;stroke-width:1.7px;stroke-miterlimit:1.5;"/></g></g><g id="Large-Two-Gold" serif:id="Large Two Gold"><g id="Gold2" serif:id="Gold"><circle cx="51.5" cy="79.002" r="10.838" style="fill:#00ffef;fill-opacity:0;stroke:#000;stroke-width:1.7px;stroke-miterlimit:1.5;"/><path d="M51.5,68.163c2.176,-1.319 2.582,-5.276 -1.071,-7.508" style="fill:none;stroke:#000;stroke-width:1.7px;stroke-miterlimit:1.5;"/><path d="M43.65,71.242c0.606,-2.471 -1.905,-5.556 -6.067,-4.552" style="fill:none;stroke:#000;stroke-width:1.7px;stroke-miterlimit:1.5;"/><path d="M40.662,79.295c-1.319,-2.176 -5.276,-2.582 -7.508,1.071" style="fill:none;stroke:#000;stroke-width:1.7px;stroke-miterlimit:1.5;"/><path d="M43.74,86.6c-2.471,-0.606 -5.556,1.905 -4.552,6.067" style="fill:none;stroke:#000;stroke-width:1.7px;stroke-miterlimit:1.5;"/><path d="M51.793,89.84c-2.176,1.319 -2.582,5.276 1.071,7.508" style="fill:none;stroke:#000;stroke-width:1.7px;stroke-miterlimit:1.5;"/><path d="M59.35,86.51c-0.606,2.471 1.905,5.556 6.067,4.552" style="fill:none;stroke:#000;stroke-width:1.7px;stroke-miterlimit:1.5;"/><path d="M62.338,78.709c1.319,2.176 5.276,2.582 7.508,-1.071" style="fill:none;stroke:#000;stroke-width:1.7px;stroke-miterlimit:1.5;"/><path d="M59.965,71.152c2.471,0.606 5.556,-1.905 4.552,-6.067" style="fill:none;stroke:#000;stroke-width:1.7px;stroke-miterlimit:1.5;"/></g><g id="Gold3" serif:id="Gold"><circle cx="51.5" cy="121.969" r="10.838" style="fill:#00ffef;fill-opacity:0;stroke:#000;stroke-width:1.7px;stroke-miterlimit:1.5;"/><path d="M51.5,111.13c2.176,-1.319 2.582,-5.276 -1.071,-7.508" style="fill:none;stroke:#000;stroke-width:1.7px;stroke-miterlimit:1.5;"/><path d="M43.65,114.208c0.606,-2.471 -1.905,-5.556 -6.067,-4.552" style="fill:none;stroke:#000;stroke-width:1.7px;stroke-miterlimit:1.5;"/><path d="M40.662,122.262c-1.319,-2.176 -5.276,-2.582 -7.508,1.071" style="fill:none;stroke:#000;stroke-width:1.7px;stroke-miterlimit:1.5;"/><path d="M43.74,129.567c-2.471,-0.606 -5.556,1.905 -4.552,6.067" style="fill:none;stroke:#000;stroke-width:1.7px;stroke-miterlimit:1.5;"/><path d="M51.793,132.807c-2.176,1.319 -2.582,5.276 1.071,7.508" style="fill:none;stroke:#000;stroke-width:1.7px;stroke-miterlimit:1.5;"/><path d="M59.35,129.477c-0.606,2.471 1.905,5.556 6.067,4.552" style="fill:none;stroke:#000;stroke-width:1.7px;stroke-miterlimit:1.5;"/><path d="M62.338,121.675c1.319,2.176 5.276,2.582 7.508,-1.071" style="fill:none;stroke:#000;stroke-width:1.7px;stroke-miterlimit:1.5;"/><path d="M59.965,114.118c2.471,0.606 5.556,-1.905 4.552,-6.067" style="fill:none;stroke:#000;stroke-width:1.7px;stroke-miterlimit:1.5;"/></g></g></g></g></svg>