<?xml version="1.0" encoding="UTF-8" standalone="no"?><!DOCTYPE svg PUBLIC "-//W3C//DTD SVG 1.1//EN" "http://www.w3.org/Graphics/SVG/1.1/DTD/svg11.dtd"><svg width="100%" height="100%" viewBox="0 0 15 15" version="1.1" xmlns="http://www.w3.org/2000/svg" xmlns:xlink="http://www.w3.org/1999/xlink" xml:space="preserve" xmlns:serif="http://www.serif.com/" style="fill-rule:evenodd;clip-rule:evenodd;stroke-linecap:round;stroke-linejoin:round;stroke-miterlimit:1.5;"><circle cx="7.5" cy="7.5" r="7.5" style="fill:#d6bf2b;"/><g id="Large-One-Gold" serif:id="Large One Gold"><circle cx="7.5" cy="7.5" r="3.564" style="fill:#fff;fill-opacity:0;stroke:#fff;stroke-width:0.78px;"/><path d="M7.5,3.936c0.716,-0.434 0.849,-1.735 -0.352,-2.469" style="fill:#fff;fill-opacity:0;stroke:#fff;stroke-width:0.78px;"/><path d="M4.918,4.948c0.199,-0.813 -0.626,-1.827 -1.995,-1.497" style="fill:#fff;fill-opacity:0;stroke:#fff;stroke-width:0.78px;"/><path d="M3.936,7.596c-0.434,-0.716 -1.735,-0.849 -2.469,0.352" style="fill:#fff;fill-opacity:0;stroke:#fff;stroke-width:0.78px;"/><path d="M4.948,9.999c-0.813,-0.199 -1.827,0.626 -1.497,1.995" style="fill:#fff;fill-opacity:0;stroke:#fff;stroke-width:0.78px;"/><path d="M7.596,11.064c-0.716,0.434 -0.849,1.735 0.352,2.469" style="fill:#fff;fill-opacity:0;stroke:#fff;stroke-width:0.78px;"/><path d="M10.082,9.969c-0.199,0.813 0.626,1.827 1.995,1.497" style="fill:#fff;fill-opacity:0;stroke:#fff;stroke-width:0.78px;"/><path d="M11.064,7.404c0.434,0.716 1.735,0.849 2.469,-0.352" style="fill:#fff;fill-opacity:0;stroke:#fff;stroke-width:0.78px;"/><path d="M10.284,4.918c0.813,0.199 1.827,-0.626 1.497,-1.995" style="fill:#fff;fill-opacity:0;stroke:#fff;stroke-width:0.78px;"/></g></svg>