<?xml version="1.0" encoding="UTF-8" standalone="no"?><!DOCTYPE svg PUBLIC "-//W3C//DTD SVG 1.1//EN" "http://www.w3.org/Graphics/SVG/1.1/DTD/svg11.dtd"><svg width="100%" height="100%" viewBox="0 0 103 160" version="1.1" xmlns="http://www.w3.org/2000/svg" xmlns:xlink="http://www.w3.org/1999/xlink" xml:space="preserve" xmlns:serif="http://www.serif.com/" style="fill-rule:evenodd;clip-rule:evenodd;stroke-linecap:round;stroke-miterlimit:2;"><g id="Color"><rect id="Zinc" x="0" y="0" width="103" height="160" style="fill:#7f00ff;"/></g><g id="Base-Metal-Background" serif:id="Base Metal Background"><g id="Numeral-Background" serif:id="Numeral Background"><path d="M31.656,-0c0.07,0.483 0.106,0.977 0.106,1.479l0,31.43c0,5.683 -4.614,10.297 -10.297,10.297l-20.594,0c-0.293,0 -0.584,-0.012 -0.871,-0.036l0,-43.169l31.656,-0Z" style="fill:none;stroke:#fff;stroke-width:3.1px;"/><path d="M31.656,-0c0.07,0.483 0.106,0.977 0.106,1.479l0,31.43c0,5.683 -4.614,10.297 -10.297,10.297l-20.594,0c-0.293,0 -0.584,-0.012 -0.871,-0.036l0,-43.169l31.656,-0Z"/><path d="M71.344,-0c-0.07,0.483 -0.106,0.977 -0.106,1.479l0,31.43c0,5.683 4.614,10.297 10.297,10.297l20.594,0c0.293,0 0.584,-0.012 0.871,-0.036l0,-43.169l-31.656,-0Z" style="fill:none;stroke:#fff;stroke-width:3.1px;"/><path d="M71.344,-0c-0.07,0.483 -0.106,0.977 -0.106,1.479l0,31.43c0,5.683 4.614,10.297 10.297,10.297l20.594,0c0.293,0 0.584,-0.012 0.871,-0.036l0,-43.169l-31.656,-0Z"/><path d="M31.656,160c0.07,-0.483 0.106,-0.977 0.106,-1.479l0,-31.43c0,-5.683 -4.614,-10.297 -10.297,-10.297l-20.594,0c-0.293,0 -0.584,0.012 -0.871,0.036l0,43.169l31.656,0Z" style="fill:none;stroke:#fff;stroke-width:3.1px;"/><path d="M31.656,160c0.07,-0.483 0.106,-0.977 0.106,-1.479l0,-31.43c0,-5.683 -4.614,-10.297 -10.297,-10.297l-20.594,0c-0.293,0 -0.584,0.012 -0.871,0.036l0,43.169l31.656,0Z"/><path d="M71.344,160c-0.07,-0.483 -0.106,-0.977 -0.106,-1.479l0,-31.43c0,-5.683 4.614,-10.297 10.297,-10.297l20.594,0c0.293,0 0.584,0.012 0.871,0.036l0,43.169l-31.656,0Z" style="fill:none;stroke:#fff;stroke-width:3.1px;"/><path d="M71.344,160c-0.07,-0.483 -0.106,-0.977 -0.106,-1.479l0,-31.43c0,-5.683 4.614,-10.297 10.297,-10.297l20.594,0c0.293,0 0.584,0.012 0.871,0.036l0,43.169l-31.656,0Z"/></g><circle id="Large-circle" serif:id="Large circle" cx="51.5" cy="80" r="34.156" style="fill:#fff;"/><g id="Small-Circles" serif:id="Small Circles"><circle cx="15" cy="43" r="14" style="fill:#fff;"/><circle cx="88" cy="43" r="14" style="fill:#fff;"/><circle cx="15" cy="117" r="14" style="fill:#fff;"/><circle cx="88" cy="117" r="14" style="fill:#fff;"/></g></g><g id="Zinc1" serif:id="Zinc"><g id="Zinc2" serif:id="Zinc"><path d="M11.678,33.174l7.571,0l-8.437,17.329l6.165,0c0,0 1.785,0.108 1.785,-1.785" style="fill:none;stroke:#000;stroke-width:1.7px;stroke-linejoin:round;stroke-miterlimit:1.5;"/><path d="M15.031,47.771l0,5.465" style="fill:none;stroke:#000;stroke-width:1.7px;stroke-linejoin:round;stroke-miterlimit:1.5;"/></g><g id="Zinc-Large" serif:id="Zinc Large"><path d="M43.88,57.205l17.205,0l-19.172,39.38l14.01,0c0,0 4.056,0.246 4.056,-4.056" style="fill:none;stroke:#000;stroke-width:1.7px;stroke-linejoin:round;stroke-miterlimit:1.5;"/><path d="M51.5,90.375l0,12.42" style="fill:none;stroke:#000;stroke-width:1.7px;stroke-linejoin:round;stroke-miterlimit:1.5;"/></g><g id="Zinc3" serif:id="Zinc"><path d="M84.616,33.174l7.571,0l-8.437,17.329l6.165,0c0,0 1.785,0.108 1.785,-1.785" style="fill:none;stroke:#000;stroke-width:1.7px;stroke-linejoin:round;stroke-miterlimit:1.5;"/><path d="M87.969,47.771l0,5.465" style="fill:none;stroke:#000;stroke-width:1.7px;stroke-linejoin:round;stroke-miterlimit:1.5;"/></g><g id="Zinc4" serif:id="Zinc"><path d="M91.322,126.826l-7.571,0l8.437,-17.329l-6.165,0c0,0 -1.785,-0.108 -1.785,1.785" style="fill:none;stroke:#000;stroke-width:1.7px;stroke-linejoin:round;stroke-miterlimit:1.5;"/><path d="M87.969,112.229l0,-5.465" style="fill:none;stroke:#000;stroke-width:1.7px;stroke-linejoin:round;stroke-miterlimit:1.5;"/></g><g id="Zinc5" serif:id="Zinc"><path d="M18.384,126.826l-7.571,0l8.437,-17.329l-6.165,0c0,0 -1.785,-0.108 -1.785,1.785" style="fill:none;stroke:#000;stroke-width:1.7px;stroke-linejoin:round;stroke-miterlimit:1.5;"/><path d="M15.031,112.229l0,-5.465" style="fill:none;stroke:#000;stroke-width:1.7px;stroke-linejoin:round;stroke-miterlimit:1.5;"/></g></g></svg>